<svg width="235" height="24" viewBox="0 0 235 24" fill="none" xmlns="http://www.w3.org/2000/svg">
<path d="M198.424 5.70336V7.00299C198.424 8.10102 197.449 8.98889 196.243 8.98889H194.063C193.648 8.98889 193.309 9.29771 193.309 9.67516V18.305C193.309 18.6825 192.97 18.9913 192.556 18.9913H188.948C188.533 18.9913 188.194 18.6825 188.194 18.305V9.67516C188.194 9.29771 187.855 8.98889 187.441 8.98889H185.26C184.054 8.98889 183.079 8.10102 183.079 7.00299V5.70336C183.079 5.32591 183.418 5.01709 183.833 5.01709H197.671C198.085 5.01709 198.424 5.32591 198.424 5.70336Z" fill="white"/>
<path d="M227.913 5.70623V18.2821C227.913 18.6553 227.583 18.9556 227.173 18.9556H225.365C224.663 18.9556 224.027 18.6982 223.566 18.2779C223.104 17.8575 222.821 17.2785 222.821 16.6394V14.9923C222.821 14.6192 222.492 14.3189 222.082 14.3189H218.465C218.055 14.3189 217.725 14.6192 217.725 14.9923V16.6394C217.725 17.9219 216.585 18.9598 215.177 18.9598H213.369C212.959 18.9598 212.629 18.6596 212.629 18.2864V5.71052C212.629 5.33736 212.959 5.03711 213.369 5.03711H215.177C215.879 5.03711 216.515 5.29446 216.976 5.7148C217.438 6.13514 217.721 6.71419 217.721 7.35328V9.00033C217.721 9.37349 218.05 9.67373 218.46 9.67373H222.077C222.487 9.67373 222.817 9.37349 222.817 9.00033V7.35328C222.817 6.71419 223.099 6.13514 223.561 5.7148C224.022 5.29446 224.658 5.03711 225.36 5.03711H227.169C227.578 5.03711 227.908 5.33736 227.908 5.71052L227.913 5.70623Z" fill="white"/>
<path d="M203.811 10.3736C203.349 10.7939 203.067 11.373 203.067 12.012C203.067 12.6511 203.349 13.2302 203.811 13.6505C204.273 14.0709 204.908 14.3282 205.61 14.3282H208.158C208.86 14.3282 209.496 14.5856 209.957 15.0059C210.419 15.4262 210.702 16.0053 210.702 16.6444V18.2828C210.702 18.656 210.367 18.9563 209.962 18.9563L205.606 18.9648C204.711 18.9648 203.853 18.8233 203.057 18.5702C200.886 17.8711 199.167 16.3012 198.395 14.3239C198.117 13.5948 197.961 12.8184 197.961 12.0035C197.961 11.1885 198.117 10.4079 198.395 9.68301C198.781 8.6922 199.403 7.80434 200.199 7.08376C200.999 6.35459 201.969 5.78842 203.053 5.44099C203.853 5.18793 204.706 5.04639 205.601 5.04639H209.957C210.367 5.04639 210.697 5.34663 210.697 5.71979V7.36684C210.697 8.64931 209.557 9.6873 208.149 9.6873H205.601C204.899 9.6873 204.263 9.94465 203.802 10.365L203.811 10.3736Z" fill="white"/>
<path d="M186.075 18.3487C186.075 18.7004 185.755 18.9921 185.368 18.9921H182.397C181.384 18.9921 180.503 18.4516 180.089 17.6753L180.046 17.5895V17.5809L180.037 17.568L179.839 17.1691L178.412 14.3297L177.696 12.9014C177.536 12.5797 177.032 12.5797 176.872 12.9014L176.156 14.3297L174.729 17.1691L174.531 17.568L174.522 17.5809V17.5895L174.479 17.671C174.272 18.0613 173.952 18.3959 173.551 18.6232C173.151 18.8505 172.68 18.9921 172.171 18.9921H169.242C168.879 18.9921 168.554 18.7561 168.502 18.4302C168.493 18.3701 168.493 18.3144 168.493 18.2586C168.502 18.1771 168.526 18.1042 168.563 18.0313L175.007 6.27888C175.431 5.52398 176.292 5.00928 177.286 5.00928C178.28 5.00928 179.142 5.52827 179.566 6.27888L179.594 6.32606L186.004 18.027C186.056 18.1214 186.08 18.2243 186.084 18.3315V18.3487H186.075Z" fill="white"/>
<path d="M173.056 5.68198C173.056 5.78492 173.028 5.89215 172.976 5.9908L166.472 17.7561C166.354 17.9534 166.208 18.1335 166.029 18.2922C165.567 18.7126 164.927 18.9742 164.22 18.9742C163.707 18.9742 163.227 18.8327 162.826 18.5967C162.676 18.511 162.539 18.4037 162.412 18.2922C162.223 18.1206 162.068 17.9233 161.945 17.7046L160.711 15.4485C160.537 15.1225 160.024 15.1225 159.845 15.4485L158.568 17.7518C158.451 17.9491 158.3 18.1292 158.126 18.2879C157.999 18.4037 157.862 18.5067 157.711 18.5925C157.311 18.8284 156.831 18.9699 156.317 18.9699C155.611 18.9699 154.975 18.7083 154.509 18.2879C154.32 18.1164 154.165 17.9191 154.042 17.7003L147.538 5.85355C147.51 5.80208 147.491 5.74203 147.491 5.68198C147.491 5.30882 147.825 5.00429 148.235 5.00429H151.212C151.725 5.00429 152.205 5.14583 152.606 5.38174C152.756 5.46752 152.893 5.57475 153.02 5.68627C153.209 5.85784 153.364 6.05514 153.486 6.27389L155.889 10.6489C156.067 10.9748 156.576 10.9748 156.755 10.6489L157.415 9.4479L155.483 5.92647C155.248 5.50184 155.592 5.00429 156.11 5.00429H159.11C159.35 5.00429 159.586 5.03431 159.807 5.09007C160.231 5.1973 160.613 5.40747 160.919 5.68627C161.107 5.85784 161.263 6.05514 161.385 6.27389L163.787 10.6489C163.961 10.9748 164.475 10.9748 164.654 10.6489L165.195 9.65807L167.051 6.2696C167.254 5.90502 167.56 5.60049 167.932 5.37745C168.337 5.14154 168.813 5 169.326 5H172.303C172.712 5 173.047 5.30453 173.047 5.67769L173.056 5.68198Z" fill="white"/>
<path d="M231.459 6.14124C231.459 6.14124 231.435 6.11551 231.459 6.11122C231.628 6.02114 231.718 5.87531 231.718 5.66514C231.718 5.17617 231.374 5.01318 230.785 5.01318H229.857C229.815 5.01318 229.787 5.03892 229.787 5.07752V7.26501C229.787 7.30361 229.815 7.32935 229.857 7.32935H230.823C231.336 7.32935 231.765 7.1492 231.765 6.66881C231.765 6.43291 231.671 6.26563 231.464 6.15411V6.14553L231.459 6.14124ZM230.474 5.56649C230.474 5.56649 230.484 5.53647 230.503 5.53647H230.79C230.964 5.53647 231.054 5.6008 231.054 5.71661C231.054 5.83242 230.96 5.89676 230.79 5.89676H230.503C230.503 5.89676 230.474 5.88818 230.474 5.87102V5.55791V5.56649ZM230.823 6.78891H230.503C230.503 6.78891 230.474 6.78033 230.474 6.76318V6.43291C230.474 6.43291 230.484 6.40288 230.503 6.40288H230.823C230.993 6.40288 231.077 6.46722 231.077 6.58732C231.077 6.70741 230.988 6.78462 230.818 6.78462L230.823 6.78891Z" fill="white"/>
<path d="M233.998 7.24287L233.555 6.38931C233.555 6.38931 233.555 6.36358 233.569 6.35929C233.838 6.25635 233.998 6.02902 233.998 5.74165C233.998 5.29986 233.668 5.00391 233.174 5.00391H232.086C232.043 5.00391 232.015 5.02964 232.015 5.06824V7.25573C232.015 7.29434 232.043 7.32007 232.086 7.32007H232.632C232.674 7.32007 232.703 7.29434 232.703 7.25573V6.45365C232.703 6.45365 232.712 6.42792 232.731 6.42792H232.863C232.863 6.42792 232.891 6.42792 232.896 6.44936L233.287 7.27289C233.301 7.30292 233.329 7.32007 233.367 7.32007H233.941C233.993 7.32007 234.012 7.29433 233.993 7.24715L233.998 7.24287ZM233.06 5.95182H232.731C232.731 5.95182 232.703 5.94324 232.703 5.92608V5.55721C232.703 5.55721 232.712 5.52719 232.731 5.52719H233.06C233.216 5.52719 233.32 5.61297 233.32 5.74165C233.32 5.87032 233.216 5.95182 233.06 5.95182Z" fill="white"/>
<path d="M0.00470914 16.2716L1.40356 15.298C2.16186 16.7263 3.40057 17.4168 4.79471 17.4168C6.48087 17.4168 7.50763 16.499 7.50763 15.3666C7.50763 14.6246 7.00367 13.9898 5.99574 13.4794C5.72257 13.3378 5.2186 13.1277 4.50269 12.8274C3.78678 12.5272 3.26398 12.2612 2.91545 12.0682C1.49776 11.2404 0.781848 10.2153 0.781848 8.98C0.781848 7.9892 1.16806 7.16138 1.9452 6.50943C2.72234 5.84031 3.74911 5.50146 5.00666 5.50146C6.77288 5.50146 8.14818 6.15342 9.15611 7.44447L7.87971 8.46959C7.12142 7.51739 6.17001 7.04129 5.0255 7.04129C3.70671 7.04129 2.69879 7.76616 2.69879 8.87706C2.69879 9.58478 3.10384 10.1681 3.91866 10.6271C4.173 10.7686 4.73348 11.0345 5.60482 11.4206C6.49499 11.8066 7.11671 12.0897 7.4464 12.287C8.78402 13.029 9.46225 14.037 9.46225 15.2894C9.46225 16.3832 9.01481 17.2839 8.12463 17.9744C7.25329 18.665 6.14646 18.9996 4.80884 18.9996C2.77415 18.9996 0.913727 18.0474 0 16.2802H0.00942008L0.00470914 16.2716Z" fill="white"/>
<path d="M15.6512 7.31639H11.3887V5.7251H21.7223V7.31639H17.4598V18.7771H15.6559V7.31639H15.6512Z" fill="white"/>
<path d="M32.4464 18.7777L28.6078 13.3905H26.5919V18.7777H24.8069V5.72998H29.578C30.9957 5.72998 32.079 6.11601 32.8562 6.8752C33.6333 7.63439 34.0195 8.53511 34.0195 9.57739C34.0195 10.4438 33.7275 11.2202 33.1293 11.9279C32.5312 12.6356 31.6928 13.0902 30.6095 13.2875L34.6836 18.7777H32.4511H32.4464ZM26.5872 7.29554V11.8335H29.1871C31.203 11.8335 32.1732 10.8255 32.1732 9.53879C32.1732 8.25203 31.2454 7.29554 29.5922 7.29554H26.5872Z" fill="white"/>
<path d="M38.1079 18.7777V5.72998H46.8919V7.28696H39.8883V11.366H46.3644V12.923H39.8883V17.2336H46.9108V18.7906H38.1079V18.782V18.7777Z" fill="white"/>
<path d="M59.7306 18.7777L58.2187 15.2992H52.7081L51.1962 18.7777H49.218L55.0583 5.72998H55.9108L61.7087 18.7777H59.7306ZM55.4681 8.73242L53.3345 13.7508H57.597L55.4634 8.73242H55.4681Z" fill="white"/>
<path d="M64.7899 18.7777V5.72998H65.5671L71.8501 14.1368L78.0766 5.72998H78.8726V18.7777H77.0687V9.75325L72.0479 16.5002H71.6005L66.5797 9.75325V18.7777H64.7899Z" fill="white"/>
<path d="M83.5253 5.72998H85.3103V18.7777H83.5253V5.72998Z" fill="white"/>
<path d="M99.5771 5.72998H101.362V18.7777H100.51L91.7445 9.32862V18.7777H89.9595V5.72998H90.6754L99.5771 15.2305V5.72998Z" fill="white"/>
<path d="M107.16 17.0655C105.78 15.7916 105.083 14.1875 105.083 12.2616C105.083 10.3358 105.799 8.6973 107.254 7.42341C108.71 6.13236 110.457 5.49756 112.51 5.49756C113.711 5.49756 114.856 5.72917 115.925 6.16667C116.994 6.60846 117.866 7.20894 118.506 7.93382L117.211 8.97609C115.991 7.71936 114.442 7.08456 112.539 7.08456C110.951 7.08456 109.609 7.57782 108.545 8.54717C107.48 9.51653 106.939 10.769 106.939 12.2745C106.939 13.78 107.461 14.9767 108.526 15.9503C109.595 16.924 110.909 17.3958 112.482 17.3958C114.248 17.3958 115.972 16.6709 117.197 15.4871V12.7677H112.27V11.2494H118.902V16.1905C117.136 18.0435 114.988 18.9613 112.407 18.9613C110.292 18.9613 108.549 18.3265 107.169 17.0526L107.16 17.0612V17.0655Z" fill="white"/>
<path d="M133.918 16.5392C133.918 17.1396 133.687 17.6672 133.211 18.1133C132.745 18.5594 132.1 18.7781 131.266 18.7781H127.729V10.9761H131.115C131.855 10.9761 132.434 11.1734 132.844 11.568C133.263 11.9583 133.47 12.413 133.47 12.9319C133.47 13.6397 133.018 14.2745 132.312 14.5147C133.367 14.7806 133.922 15.5998 133.922 16.5435L133.918 16.5392ZM128.873 11.9583V14.1329H130.927C131.77 14.1329 132.283 13.5925 132.283 12.992C132.283 12.443 131.784 11.9583 130.964 11.9583H128.878H128.873ZM131.078 17.7873C131.577 17.7873 131.982 17.6629 132.269 17.397C132.571 17.1311 132.721 16.818 132.721 16.4662C132.721 15.7199 132.109 15.0937 131.03 15.0937H128.873V17.7873H131.078Z" fill="white"/>
<path d="M141.897 10.9761L138.962 15.9687V18.7738H137.804V15.9687L134.907 10.9761H136.193L138.383 14.9221L140.611 10.9761H141.897Z" fill="white"/>
</svg>
